PathFileType	4	(X/Y/Z)	C:\Users\86182\Documents\cortex\Trimmed_M3_L3.trc
DataRate	CameraRate	NumFrames	NumMarkers	Units	OrigDataRate	OrigDataStartFrame	OrigNumFrames
100.00	100.00	       70	2	mm	100.00	361	       901
Frame#	Time	gripper			box			
		X1	Y1	Z1	X2	Y2	Z2	

361	3.600	273.52170	149.76338	292.45944	275.11902	148.30576	156.39886	
362	3.610	273.49124	149.79195	292.63211	275.02835	148.35992	156.59760	
363	3.620	273.47934	149.78429	292.66101	275.07883	148.34489	156.65181	
364	3.630	273.55133	149.81593	292.68317	274.89066	148.37411	156.76208	
365	3.640	273.50494	149.81198	292.81573	274.99332	148.36287	156.87376	
366	3.650	273.50494	149.81198	292.81573	275.00107	148.33542	156.95366	
367	3.660	273.44699	149.83675	292.89841	275.05927	148.37811	157.03127	
368	3.670	273.35626	149.86592	292.99008	274.92990	148.35831	157.19957	
369	3.680	273.48871	149.92111	293.07803	274.81760	148.41275	157.29301	
370	3.690	273.49164	149.91585	293.11038	274.90051	148.46686	157.34799	
371	3.700	273.49307	149.92545	293.13974	274.87509	148.45923	157.36543	
372	3.710	273.46338	149.91466	293.14484	274.86975	148.50270	157.43065	
373	3.720	273.50223	149.93652	293.16672	274.91852	148.46628	157.38699	
374	3.730	273.51501	149.92575	293.15637	274.85245	148.46799	157.48940	
375	3.740	273.50836	149.94705	293.18643	274.90726	148.48177	157.41718	
376	3.750	273.49997	149.95071	293.18652	274.93915	148.47905	157.41444	
377	3.760	273.52383	149.94324	293.19061	275.01736	148.46909	157.43373	
378	3.770	273.53757	149.91182	293.14963	274.97205	148.44504	157.41519	
379	3.780	273.54190	149.91109	293.15167	274.98160	148.40407	157.39830	
380	3.790	273.54184	149.90996	293.14960	275.00803	148.35397	157.36537	
381	3.800	273.54135	149.90215	293.13513	275.01224	148.34332	157.33542	
382	3.810	273.54184	149.90996	293.14960	274.97397	148.42554	157.35965	
383	3.820	273.53943	149.92062	293.16647	275.00970	148.40433	157.36391	
384	3.830	273.53784	149.91632	293.15796	274.99557	148.44121	157.41635	
385	3.840	273.54227	149.91791	293.16422	275.06781	148.35602	157.38222	
386	3.850	273.54208	149.91447	293.15793	275.03815	148.40378	157.38939	
387	3.860	273.54163	149.90660	293.14334	275.03186	148.39769	157.36906	
388	3.870	273.45593	149.86404	293.11136	274.98874	148.26335	157.32501	
389	3.880	273.44464	149.84137	293.00131	274.84174	148.24759	157.27942	
390	3.890	273.45557	149.82990	292.92953	274.73950	148.14091	157.26584	
391	3.900	273.41357	149.80928	292.88031	274.78714	148.07823	157.18977	
392	3.910	273.43912	149.80432	292.87082	274.78754	148.07124	157.15535	
393	3.920	273.43289	149.81453	292.85965	274.84329	148.07448	157.11441	
394	3.930	273.40112	149.81758	292.87613	274.81161	148.08708	157.12727	
395	3.940	273.41672	149.81386	292.87140	274.75003	148.10257	157.15631	
396	3.950	273.36539	149.82474	292.88910	274.75134	148.09862	157.16676	
397	3.960	273.38290	149.81725	292.88870	274.77945	148.09773	157.20206	
398	3.970	273.44244	149.82054	292.90439	274.74905	148.11188	157.24998	
399	3.980	273.44559	149.81894	292.90894	274.77298	148.09499	157.24423	
400	3.990	273.48438	149.82384	292.92657	274.79562	148.08072	157.24454	
401	4.000	273.52429	149.81387	292.89838	274.80328	148.07802	157.22430	
402	4.010	273.50748	149.80717	292.88983	274.80878	148.08669	157.22876	
403	4.020	273.48810	149.79947	292.88000	274.82285	148.07021	157.17403	
404	4.030	273.44589	149.80144	292.87064	274.87500	148.07268	157.13519	
405	4.040	273.44818	149.80046	292.87057	274.83243	148.06749	157.12848	
406	4.050	273.44562	149.80461	292.86606	274.82376	148.07176	157.12970	
407	4.060	273.43234	149.80719	292.87100	274.81659	148.07251	157.13383	
408	4.070	273.41925	149.80759	292.87909	274.74313	148.10437	157.17670	
409	4.080	273.42004	149.81686	292.89474	274.79370	148.08884	157.19560	
410	4.090	273.48654	149.81012	292.88647	274.80441	148.07800	157.18724	
411	4.100	273.50189	149.81573	292.90198	274.79532	148.07919	157.22403	
412	4.110	273.48990	149.81041	292.89233	274.80838	148.07692	157.22652	
413	4.120	273.46506	149.80531	292.87796	274.79007	148.06984	157.19711	
414	4.130	273.42276	149.80684	292.87787	274.76834	148.08493	157.19528	
415	4.140	273.40170	149.81656	292.87726	274.78403	148.07587	157.15260	
416	4.150	273.41357	149.80928	292.88031	274.77203	148.09117	157.15010	
417	4.160	273.41672	149.81386	292.87140	274.78040	148.07625	157.15469	
418	4.170	273.40390	149.81563	292.87723	274.77310	148.07700	157.15891	
419	4.180	273.45499	149.79756	292.87039	274.78619	148.07480	157.15230	
420	4.190	273.45755	149.80048	292.87296	274.80276	148.06364	157.15332	
421	4.200	273.47174	149.80048	292.87650	274.79065	148.07933	157.19070	
422	4.210	273.49542	149.80238	292.88370	274.85388	148.07425	157.19351	
423	4.220	273.52429	149.81387	292.89838	274.81265	148.07904	157.22568	
424	4.230	273.48810	149.79947	292.88000	274.82190	148.08412	157.21806	
425	4.240	273.47189	149.80241	292.87778	274.83414	148.07782	157.18060	
426	4.250	273.45270	149.79854	292.87048	274.79080	148.09575	157.18201	
427	4.260	273.45044	149.79950	292.87051	274.82672	148.06497	157.14934	
428	4.270	273.42786	149.80910	292.87109	274.82736	148.07140	157.12764	
429	4.280	273.43460	149.80623	292.87094	274.81659	148.07251	157.13383	
430	4.290	273.43686	149.80527	292.87088	274.79562	148.07298	157.14781	
